HIERARCHY
ROOT SpineBase
{
  OFFSET 0.000000 0.000000 0.000000
  CHANNELS 6 Xposition Yposition Zposition Zrotation Xrotation Yrotation
  JOINT SpineMid
  {
    OFFSET 0.000000 28.670052 0.000000
    CHANNELS 3 Zrotation Xrotation Yrotation
    JOINT SpineShoulder
    {
      OFFSET 0.178361 21.311765 -0.562841
      CHANNELS 3 Zrotation Xrotation Yrotation
      JOINT Neck
      {
        OFFSET 0.108616 7.065551 -0.443127
        CHANNELS 3 Zrotation Xrotation Yrotation
        JOINT Head
        {
          OFFSET -3.847888 12.893265 -0.928105
          CHANNELS 3 Zrotation Xrotation Yrotation
          End Site
          {
            OFFSET 0 0 0
          }
        }
      }
      JOINT ShoulderLeft
      {
        OFFSET -16.196067 -3.300739 6.449771
        CHANNELS 3 Zrotation Xrotation Yrotation
        JOINT ElbowLeft
        {
          OFFSET -2.275033 -27.570341 4.879663
          CHANNELS 3 Zrotation Xrotation Yrotation
          JOINT WristLeft
          {
            OFFSET 0.416651 -22.057096 -2.748557
            CHANNELS 3 Zrotation Xrotation Yrotation
            JOINT HandLeft
            {
              OFFSET 1.445647 -3.528600 -2.976413
              CHANNELS 3 Zrotation Xrotation Yrotation
              JOINT HandTipLeft
              {
                OFFSET 1.425289 -3.454697 -3.704713
                CHANNELS 3 Zrotation Xrotation Yrotation
                End Site
                {
                  OFFSET 0 0 0
                }
              }
              JOINT ThumbLeft
              {
                OFFSET -0.076925 3.140191 -0.235461
                CHANNELS 3 Zrotation Xrotation Yrotation
                End Site
                {
                  OFFSET 0 0 0
                }
              }
            }
          }
        }
      }
      JOINT ShoulderRight
      {
        OFFSET 14.129542 -2.288172 -6.969387
        CHANNELS 3 Zrotation Xrotation Yrotation
        JOINT ElbowRight
        {
          OFFSET 6.303794 -22.640223 0.657820
          CHANNELS 3 Zrotation Xrotation Yrotation
          JOINT WristRight
          {
            OFFSET -1.018121 -21.879508 -4.597006
            CHANNELS 3 Zrotation Xrotation Yrotation
            JOINT HandRight
            {
              OFFSET -1.936872 -6.130691 0.188654
              CHANNELS 3 Zrotation Xrotation Yrotation
              JOINT HandTipRight
              {
                OFFSET 0.270171 -7.334673 -1.013096
                CHANNELS 3 Zrotation Xrotation Yrotation
                End Site
                {
                  OFFSET 0 0 0
                }
              }
              JOINT ThumbRight
              {
                OFFSET -2.572962 -0.570571 -2.766471
                CHANNELS 3 Zrotation Xrotation Yrotation
                End Site
                {
                  OFFSET 0 0 0
                }
              }
            }
          }
        }
      }
    }
  }
  JOINT HipLeft
  {
    OFFSET -6.308864 0.384524 -0.979381
    CHANNELS 3 Zrotation Xrotation Yrotation
    JOINT KneeLeft
    {
      OFFSET 3.282631 -34.096227 6.739963
      CHANNELS 3 Zrotation Xrotation Yrotation
      JOINT AnkleLeft
      {
        OFFSET 4.300111 -29.722397 3.401710
        CHANNELS 3 Zrotation Xrotation Yrotation
        JOINT FootLeft
        {
          OFFSET 4.689405 -6.263020 -6.306915
          CHANNELS 3 Zrotation Xrotation Yrotation
          End Site
          {
            OFFSET 0 0 0
          }
        }
      }
    }
  }
  JOINT HipRight
  {
    OFFSET 7.044494 1.392094 -5.521195
    CHANNELS 3 Zrotation Xrotation Yrotation
    JOINT KneeRight
    {
      OFFSET 5.835308 -32.220599 4.504791
      CHANNELS 3 Zrotation Xrotation Yrotation
      JOINT AnkleRight
      {
        OFFSET 2.537008 -32.762674 5.043453
        CHANNELS 3 Zrotation Xrotation Yrotation
        JOINT FootRight
        {
          OFFSET -5.784641 -5.879540 -2.848887
          CHANNELS 3 Zrotation Xrotation Yrotation
          End Site
          {
            OFFSET 0 0 0
          }
        }
      }
    }
  }
}
MOTION
Frames: 13
Frame Time: 0.033333
-37.543588 71.904014 342.938756 -0.000000 0.000000 18.784464 -0.000000 0.000000 -18.784464 -0.000000 0.000000 0.000000 -0.000000 0.000000 0.000000 0.000000 0.000000 0.000000 -0.000000 0.000000 0.000000 -0.000000 0.000000 0.000000 -0.000000 0.000000 0.000000 -0.000000 0.000000 0.000000 0.000000 0.000000 0.000000 0.000000 0.000000 0.000000 -0.000000 0.000000 0.000000 -0.000000 0.000000 0.000000 -0.000000 0.000000 0.000000 -0.000000 0.000000 0.000000 0.000000 0.000000 0.000000 0.000000 0.000000 0.000000 -0.000000 0.000000 -18.784464 -0.000000 0.000000 0.000000 -0.000000 0.000000 0.000000 0.000000 0.000000 0.000000 -0.000000 0.000000 -18.784464 -0.000000 0.000000 0.000000 -0.000000 0.000000 0.000000 0.000000 0.000000 0.000000
-37.590763 71.883069 343.258569 -0.022944 -0.270296 19.009511 0.109735 0.248082 -19.009802 -0.000000 0.000000 0.000000 -0.000000 0.000000 0.000000 0.000000 0.000000 0.000000 -0.000000 0.000000 0.000000 -0.000000 0.000000 0.000000 -0.648712 2.836569 1.694051 -2.891282 -16.465527 -5.163397 0.000000 0.000000 0.000000 0.000000 0.000000 0.000000 -0.000000 0.000000 0.000000 -0.000000 0.000000 0.000000 0.176438 1.365343 -0.428410 -0.218430 -3.393842 0.356601 0.000000 0.000000 0.000000 0.000000 0.000000 0.000000 0.109735 0.248082 -19.009802 -0.000000 0.000000 0.000000 -0.653246 0.124069 0.753820 0.000000 0.000000 0.000000 0.109735 0.248082 -19.009802 -0.000000 0.000000 0.000000 -0.283965 0.658270 -0.505783 0.000000 0.000000 0.000000
-37.632844 71.863387 343.534020 -0.038471 -0.511923 19.179274 0.204520 0.470869 -19.180286 0.297014 -0.820493 0.033354 0.210414 -0.285549 -0.324409 0.000000 0.000000 0.000000 -0.296567 0.820655 -0.029104 0.980984 0.108891 -0.121086 -2.323858 4.267457 3.009049 -5.656996 -26.101668 -9.268684 0.000000 0.000000 0.000000 0.000000 0.000000 0.000000 -0.296567 0.820655 -0.029104 0.280703 -0.913723 -0.014245 0.025190 3.364208 -0.758716 -0.335356 -6.039432 0.638042 0.000000 0.000000 0.000000 0.000000 0.000000 0.000000 0.204520 0.470869 -19.180286 -0.000000 0.000000 0.000000 -1.062586 0.289166 1.294903 0.000000 0.000000 0.000000 0.204520 0.470869 -19.180286 -0.000000 0.000000 0.000000 -0.536080 1.230111 -0.935599 0.000000 0.000000 0.000000
-37.669833 71.844968 343.765110 -0.046561 -0.724682 19.294021 0.262411 -0.175745 -19.282308 0.170926 -0.358806 0.031405 0.209612 -0.105684 -0.377963 0.000000 0.000000 0.000000 0.387372 1.584468 0.049690 0.605951 -0.196282 -0.277968 -3.509797 4.881347 3.985317 -7.768144 -31.564796 -12.365832 0.000000 0.000000 0.000000 0.000000 0.000000 0.000000 -0.429354 1.162934 -0.040472 0.422802 -1.222388 -0.027506 -0.032117 4.521274 -1.015530 -0.373310 -7.958464 0.863548 0.000000 0.000000 0.000000 0.000000 0.000000 0.000000 0.283407 0.668593 -19.295969 -0.000000 0.000000 0.000000 -1.228770 0.500793 1.623550 0.000000 0.000000 0.000000 0.283407 0.668593 -19.295969 -0.000000 0.000000 0.000000 -0.759232 1.716896 -1.292189 0.000000 0.000000 0.000000
-37.701729 71.827813 343.951837 -0.047203 -0.908414 19.354017 0.332565 -0.225494 -19.339387 0.211715 -0.448473 0.039913 0.140053 0.288129 -0.359479 0.000000 0.000000 0.000000 0.423388 1.927618 0.055061 0.856770 -0.082958 -0.349858 -4.751796 4.849731 4.799767 -9.041812 -34.358546 -14.496339 0.000000 0.000000 0.000000 0.000000 0.000000 0.000000 -0.551840 1.459873 -0.050059 0.565972 -1.431938 -0.045336 -0.134257 5.372981 -1.201192 -0.347119 -9.165720 1.044814 0.000000 0.000000 0.000000 0.000000 0.000000 0.000000 0.883704 1.477107 -19.234087 -0.298636 -0.777385 -0.135755 -1.152187 0.761763 1.739654 0.000000 0.000000 0.000000 0.345614 0.841430 -19.356929 -0.000000 0.000000 0.000000 -0.955844 2.119894 -1.577876 0.000000 0.000000 0.000000
-37.728531 71.811921 344.094204 -0.040394 -1.063002 19.359521 0.394228 -0.270505 -19.342231 0.244440 -0.523374 0.047455 0.001858 0.894827 -0.268322 0.000000 0.000000 0.000000 0.413709 2.179040 0.057395 1.131190 0.119250 -0.413438 -6.101204 4.235935 5.517951 -9.394881 -35.205836 -15.702716 0.000000 0.000000 0.000000 0.000000 0.000000 0.000000 -0.664050 1.711538 -0.058090 0.710173 -1.542265 -0.068096 -0.280980 5.939543 -1.320765 -0.266112 -9.669493 1.188413 0.000000 0.000000 0.000000 0.000000 0.000000 0.000000 0.975875 1.702220 -19.231013 -0.317907 -0.865651 -0.148404 -0.832602 1.072187 1.642407 0.000000 0.000000 0.000000 0.937380 1.576931 -19.197367 -0.323249 -0.734498 -0.180219 -1.127900 2.440203 -1.794576 0.000000 0.000000 0.000000
-37.739614 71.807796 344.083371 -0.015872 -1.156642 18.969001 0.479987 -0.306155 -18.948493 0.280097 -0.635391 0.057218 -0.815569 1.926474 -0.067119 0.000000 0.000000 0.000000 0.271747 2.197911 0.063676 1.705733 0.247843 -0.509543 -8.627382 6.401358 8.132641 -6.620977 -32.168712 -15.859870 0.000000 0.000000 0.000000 0.000000 0.000000 0.000000 -0.815569 1.926474 -0.067119 0.860866 -1.407498 -0.105111 -0.426184 5.673554 -1.238836 0.243504 -8.113733 1.177571 0.000000 0.000000 0.000000 0.000000 0.000000 0.000000 0.391033 1.088662 -18.972876 -0.000000 0.000000 0.000000 0.277928 1.542610 0.858263 0.000000 0.000000 0.000000 0.391033 1.088662 -18.972876 -0.000000 0.000000 0.000000 -1.280065 2.602807 -1.870564 0.000000 0.000000 0.000000
-37.763479 71.792197 344.174796 0.000417 -1.313246 18.902572 0.545174 -0.330449 -18.879549 0.297347 -0.699030 0.063967 -0.688828 3.000845 0.186792 0.000000 0.000000 0.000000 0.181755 2.247775 0.070725 1.663397 -0.130475 -0.526489 -9.795256 5.495585 8.715499 -5.527586 -29.357378 -14.460141 0.000000 0.000000 0.000000 0.000000 0.000000 0.000000 -0.918013 2.149463 -0.073478 1.037839 -1.325317 -0.144797 -0.571389 5.018706 -1.012818 0.768884 -5.256606 1.018604 0.000000 0.000000 0.000000 0.000000 0.000000 0.000000 0.888722 1.926365 -18.800261 -0.218441 -0.796656 -0.121254 1.996333 2.518265 -0.162839 0.000000 0.000000 0.000000 1.023136 1.766633 -18.742637 -0.397836 -0.688319 -0.182633 -1.474239 2.776473 -1.934698 0.000000 0.000000 0.000000
-37.776198 71.777300 344.232063 0.009541 -1.426104 18.858971 0.563303 -0.383707 -18.834079 0.306938 -0.729019 0.067735 -0.981460 4.584097 0.594092 0.000000 0.000000 0.000000 0.072480 2.309765 0.067358 2.194747 1.098512 -0.600273 -11.266411 -1.785675 6.894571 -1.982404 -24.050615 -13.270517 0.000000 0.000000 0.000000 0.000000 0.000000 0.000000 -0.779952 1.553279 -0.296134 1.090267 -0.424779 -0.003314 -0.556892 4.836573 -0.938232 1.349654 -4.046995 0.947029 0.000000 0.000000 0.000000 0.000000 0.000000 0.000000 0.913295 2.075937 -18.757585 -0.204097 -0.833134 -0.121886 2.638094 2.842160 -0.569950 0.000000 0.000000 0.000000 0.452028 1.352617 -18.864188 -0.000000 0.000000 0.000000 -1.698070 2.816479 -1.857604 0.000000 0.000000 0.000000
-37.788938 71.769724 344.259643 0.034705 -1.443699 18.863064 0.544389 -0.423890 -18.836661 0.299261 -0.686475 0.067426 -1.179572 5.730412 0.931379 0.000000 0.000000 0.000000 -0.057649 2.329377 0.050304 2.313771 1.728767 -0.585081 -14.838447 -14.512275 3.752100 3.166839 -12.531505 -10.651556 0.000000 0.000000 0.000000 0.000000 0.000000 0.000000 -0.920263 1.432818 -0.335083 1.615271 -0.248747 -0.052749 -0.772458 5.260040 -1.002345 -0.842613 -4.104206 1.236791 0.000000 0.000000 0.000000 0.000000 0.000000 0.000000 0.944944 2.116547 -18.751749 -0.246120 -0.864077 -0.133527 2.581579 2.640458 -0.655942 0.000000 0.000000 0.000000 0.433998 1.377372 -18.867843 -0.000000 0.000000 0.000000 -2.766205 2.588569 -1.105701 0.000000 0.000000 0.000000
-37.809990 71.759805 344.235638 0.071103 -1.331904 18.882838 0.500636 -0.454459 -18.855420 0.277129 -0.581940 0.063638 -1.227148 6.193148 1.125063 0.000000 0.000000 0.000000 -0.966251 2.183121 -0.075835 3.076810 1.840262 -0.397161 -18.416358 -21.133740 2.755932 6.141303 -4.843756 -8.888871 0.000000 0.000000 0.000000 0.000000 0.000000 0.000000 -1.106319 1.215678 -0.345163 2.213488 -0.402780 -0.110523 -2.339546 8.010219 -1.691992 0.054177 -8.278623 2.088109 0.000000 0.000000 0.000000 0.000000 0.000000 0.000000 0.993872 1.994604 -18.747234 -0.367914 -0.875974 -0.159685 2.722875 2.418607 -0.951591 0.000000 0.000000 0.000000 0.363828 1.283228 -18.886086 -0.000000 0.000000 0.000000 -2.306816 2.572221 -1.320839 0.000000 0.000000 0.000000
-37.897807 71.754893 344.208849 0.017938 -1.202331 19.110251 0.510150 -0.435510 -19.085566 0.256671 -0.461455 0.056982 -1.079816 6.204813 1.215213 0.000000 0.000000 0.000000 -0.896994 1.909373 -0.070730 2.461468 2.629738 -0.312574 -21.963144 -28.702760 0.475398 7.944141 2.763025 -5.479977 0.000000 0.000000 0.000000 0.000000 0.000000 0.000000 -0.896994 1.909373 -0.070730 2.560510 -1.564805 -0.431961 -2.882171 8.956011 -1.826053 -1.200096 -11.675579 2.208483 0.000000 0.000000 0.000000 0.000000 0.000000 0.000000 1.209496 1.814321 -18.935720 -0.569472 -0.906017 -0.204081 1.772024 1.689277 -0.531728 0.000000 0.000000 0.000000 0.376726 1.141936 -19.113817 -0.000000 0.000000 0.000000 -1.665690 2.437517 -1.518481 0.000000 0.000000 0.000000
-38.055381 71.741215 344.183479 -0.134681 -1.063830 19.335289 0.600150 -0.429642 -19.315325 0.254004 -0.357553 0.050888 -0.742840 5.898855 1.213050 0.000000 0.000000 0.000000 -0.434594 2.408031 -0.074189 0.680041 4.768482 -0.072814 -24.535957 -32.237753 0.605727 9.124557 4.250654 -4.825265 0.000000 0.000000 0.000000 0.000000 0.000000 0.000000 -0.826152 1.628965 -0.065163 1.700411 -0.819173 -0.307690 -4.598123 10.587047 -2.553097 -0.738027 -16.078720 2.915219 0.000000 0.000000 0.000000 0.000000 0.000000 0.000000 1.621708 1.550510 -19.100912 -0.885994 -0.932212 -0.271866 1.617172 1.498153 -0.515717 0.000000 0.000000 0.000000 1.513076 1.020051 -19.152675 -0.956467 -0.396392 -0.209040 -1.088198 2.071539 -1.464758 0.000000 0.000000 0.000000
